HIERARCHY
ROOT Hips
{
	OFFSET 0.00 0.00 0.00
	CHANNELS 6 Xposition Yposition Zposition Xrotation Yrotation Zrotation
	JOINT Spine
	{
		OFFSET 0.00000 4.88528 0.00000
		CHANNELS 3 Xrotation Yrotation Zrotation
		JOINT Head
		{
			OFFSET 0.00000 16.49416 0.00000
			CHANNELS 3 Xrotation Yrotation Zrotation
			End Site
			{
				OFFSET 0.00000 4.52755 0.00000
			}
		}
		JOINT LeftShoulder
		{
			OFFSET 0.00000 10.66345 0.00000
			CHANNELS 3 Xrotation Yrotation Zrotation
			JOINT LeftArm
			{
				OFFSET 7.53191 0.00000 0.00000
				CHANNELS 3 Xrotation Yrotation Zrotation
				JOINT LeftForeArm
				{
					OFFSET 10.22920 0.00000 0.00000
					CHANNELS 3 Yrotation Zrotation Xrotation
					JOINT LeftHand
					{
						OFFSET 8.67349 0.00000 0.00000
						CHANNELS 3 Xrotation Yrotation Zrotation
						JOINT LeftHandThumb1
						{
							OFFSET 0.00000 0.00000 0.00000
							CHANNELS 3 Xrotation Zrotation Yrotation
							End Site
							{
								OFFSET 0.00000 0.00000 3.93700
							}
						}
						End Site
						{
							OFFSET 3.93700 0.00000 0.00000
						}
					}
				}
			}
		}
		JOINT RightShoulder
		{
			OFFSET 0.00000 10.66345 0.00000
			CHANNELS 3 Xrotation Yrotation Zrotation
			JOINT RightArm
			{
				OFFSET -7.53191 0.00000 0.00000
				CHANNELS 3 Xrotation Yrotation Zrotation
				JOINT RightForeArm
				{
					OFFSET -10.22920 0.00000 0.00000
					CHANNELS 3 Yrotation Zrotation Xrotation
					JOINT RightHand
					{
						OFFSET -8.67349 0.00000 0.00000
						CHANNELS 3 Xrotation Yrotation Zrotation
						JOINT RightHandThumb1
						{
							OFFSET 0.00000 0.00000 0.00000
							CHANNELS 3 Xrotation Zrotation Yrotation
							End Site
							{
								OFFSET 0.00000 0.00000 3.93700
							}
						}
						End Site
						{
							OFFSET -3.93700 0.00000 0.00000
						}
					}
				}
			}
		}
	}
	JOINT LeftUpLeg
	{
		OFFSET 2.67219 0.00000 0.00000
		CHANNELS 3 Xrotation Yrotation Zrotation
		JOINT LeftLeg
		{
			OFFSET 0.00000 -16.26339 0.00000
			CHANNELS 3 Xrotation Yrotation Zrotation
			JOINT LeftFoot
			{
				OFFSET 0.00000 -14.32816 0.00000
				CHANNELS 3 Xrotation Yrotation Zrotation
				JOINT LeftToeBase
				{
					OFFSET 0.00000 -1.30219 4.85985
					CHANNELS 3 Xrotation Yrotation Zrotation
					End Site
					{
						OFFSET 0.00000 0.00000 2.95275
					}
				}
			}
		}
	}
	JOINT RightUpLeg
	{
		OFFSET -2.67219 0.00000 0.00000
		CHANNELS 3 Xrotation Yrotation Zrotation
		JOINT RightLeg
		{
			OFFSET 0.00000 -16.26339 0.00000
			CHANNELS 3 Xrotation Yrotation Zrotation
			JOINT RightFoot
			{
				OFFSET 0.00000 -14.32816 0.00000
				CHANNELS 3 Xrotation Yrotation Zrotation
				JOINT RightToeBase
				{
					OFFSET 0.00000 -1.30219 4.85985
					CHANNELS 3 Xrotation Yrotation Zrotation
					End Site
					{
						OFFSET 0.00000 0.00000 2.95275
					}
				}
			}
		}
	}
}
MOTION
Frames: 11
Frame Time: 0.008333
 1.9348 34.0892 -6.6397 63.1626 15.7922 -103.1380 -33.0720 -29.8048 19.2285 -22.2292 10.5941 35.9693 15.5436 37.1999 37.4980 -91.8271 -12.1365 -15.0672 -25.7548 -0.0000 16.2890 2.8251 -7.4245 20.9012 33.1476 -0.0000 26.2537 -1.2989 -25.7364 -26.7205 -25.3178 -36.4831 27.3077 -1.3203 -0.0000 -63.5507 -1.2469 3.8179 18.1011 32.8623 0.0000 -24.3270 -69.0111 -21.2719 30.2648 -3.3613 0.0000 0.0000 3.6471 16.8393 -1.1023 -14.0015 0.0000 0.0000 33.8691 5.1935 -27.7378 67.5228 0.0000 0.0000 55.0162 7.5658 -6.5316 10.3715 -0.0000 0.0000
 1.9259 34.0853 -6.6347 63.0055 15.5659 -103.2238 -33.0893 -29.8566 19.4492 -22.3389 10.6947 35.8012 15.4956 37.1957 37.5073 -91.8747 -12.1279 -15.1371 -25.7243 -0.0000 16.3540 2.8267 -7.4589 20.8241 33.1476 -0.0000 26.2537 -1.2759 -25.7065 -26.7768 -25.3947 -36.3373 27.2316 -1.2665 -0.0000 -63.5624 -1.2230 3.7660 18.0050 32.8623 0.0000 -24.3270 -69.0758 -21.3488 30.4287 -3.6831 -0.0000 -0.0000 3.7645 16.9516 -0.3485 -13.9039 -0.0000 -0.0000 33.9538 5.3604 -27.7239 67.2629 0.0000 0.0000 54.9630 7.6236 -6.5708 10.3057 0.0000 -0.0000
 1.9158 34.0818 -6.6311 62.8215 15.3138 -103.2937 -33.1474 -29.8784 19.6617 -22.4301 10.7950 35.6677 15.4564 37.1763 37.5455 -91.9041 -12.0762 -15.2012 -25.6846 -0.0000 16.4244 2.8022 -7.3977 20.8144 33.1476 -0.0000 26.2537 -1.2502 -25.6700 -26.8135 -25.4286 -36.1358 27.1463 -1.2934 -0.0000 -63.5486 -1.2114 3.7314 18.0010 32.8623 0.0000 -24.3270 -69.1663 -21.4590 30.6073 -3.9537 -0.0000 -0.0000 3.8650 17.1166 0.1571 -13.8678 0.0000 0.0000 34.0239 5.5552 -27.7129 67.0076 -0.0000 0.0000 54.9903 7.6287 -6.5909 9.9573 0.0000 0.0000
 1.9057 34.0787 -6.6264 62.6519 15.0616 -103.3895 -33.1960 -29.9174 19.8857 -22.5357 10.9087 35.5608 15.4927 37.2162 37.5510 -92.0204 -11.9917 -15.2981 -25.6340 -0.0000 16.5425 2.8223 -7.5724 20.5106 33.1476 -0.0000 26.2537 -1.2847 -25.6128 -26.8613 -25.3495 -35.8423 27.0751 -1.4225 -0.0000 -63.6434 -1.2165 3.7469 18.0018 32.8623 0.0000 -24.3270 -69.1771 -21.6920 30.8112 -4.2501 0.0000 0.0000 3.9320 17.3590 0.9293 -13.6585 -0.0000 -0.0000 34.1039 5.7784 -27.6861 66.7470 -0.0000 -0.0000 55.0551 7.7137 -6.5710 10.0163 -0.0000 0.0000
 1.8932 34.0751 -6.6235 62.4932 14.8102 -103.4335 -33.2690 -29.9098 20.0355 -22.6633 10.9844 35.5100 15.5337 37.2543 37.5266 -92.1107 -11.9772 -15.3780 -25.5249 -0.0000 16.4689 2.8302 -7.4658 20.8306 33.1476 -0.0000 26.2537 -1.3216 -25.5744 -26.8839 -25.3424 -35.5964 26.9454 -1.5261 -0.0000 -63.7096 -1.2143 3.7421 17.9931 32.8623 0.0000 -24.3270 -69.1369 -21.9874 31.0035 -4.5111 0.0000 0.0000 3.9829 17.7089 1.6838 -13.5289 0.0000 -0.0000 34.1678 5.9205 -27.7163 66.5388 -0.0000 -0.0000 55.0869 7.6396 -6.5767 9.8510 -0.0000 -0.0000
 1.8789 34.0698 -6.6203 62.3623 14.5728 -103.4816 -33.3299 -29.9142 20.1615 -22.8067 11.0195 35.4602 15.5258 37.2478 37.5745 -92.0800 -11.9353 -15.4271 -25.3796 -0.0000 16.4275 2.8023 -7.4033 20.8006 33.1476 -0.0000 26.2537 -1.3775 -25.5285 -26.9198 -25.2875 -35.3180 26.8287 -1.7188 -0.0000 -63.9258 -1.1964 3.6686 18.0755 32.8623 0.0000 -24.3270 -69.0220 -22.3893 31.2009 -4.7533 0.0000 0.0000 4.0214 18.1581 2.4020 -13.3411 0.0000 0.0000 34.2413 6.0099 -27.7537 66.3712 -0.0000 0.0000 55.0634 7.4784 -6.5393 9.6784 -0.0000 -0.0000
 1.8647 34.0637 -6.6162 62.2393 14.3493 -103.5100 -33.3918 -29.9126 20.2503 -22.9470 11.0565 35.4652 15.5850 37.2905 37.5494 -92.1172 -11.9354 -15.4842 -25.1932 -0.0000 16.4678 2.8716 -7.6405 20.6698 33.1476 -0.0000 26.2537 -1.4890 -25.4318 -26.9851 -25.2921 -35.1642 26.6330 -1.8750 -0.0000 -63.9314 -1.2173 3.6762 18.3356 32.8623 0.0000 -24.3270 -68.9079 -22.7634 31.3893 -4.9802 0.0000 0.0000 4.0818 18.6496 2.8497 -13.4551 0.0000 0.0000 34.3370 6.1112 -27.7938 66.2205 -0.0000 -0.0000 55.0415 7.3185 -6.4928 10.0461 0.0000 -0.0000
 1.8491 34.0580 -6.6109 62.1105 14.1480 -103.5522 -33.4115 -29.9031 20.3633 -23.0882 11.0856 35.4976 15.5444 37.2493 37.5881 -91.9436 -11.9625 -15.4697 -24.9749 -0.0000 16.3287 2.8939 -7.8406 20.3327 33.1476 -0.0000 26.2537 -1.6222 -25.3229 -27.0976 -25.3066 -35.1404 26.4521 -1.9181 -0.0000 -63.8485 -1.2218 3.6701 18.4279 32.8623 0.0000 -24.3270 -68.7939 -23.0933 31.5970 -5.2173 -0.0000 -0.0000 4.0821 18.9871 3.6731 -13.1911 -0.0000 -0.0000 34.4162 6.1987 -27.8372 66.1372 -0.0000 -0.0000 54.9549 7.1029 -6.5299 10.2802 0.0000 -0.0000
 1.8325 34.0525 -6.6051 61.9877 13.9431 -103.5748 -33.4454 -29.8903 20.4388 -23.2512 11.1210 35.5763 15.6223 37.3254 37.5394 -91.8906 -12.0256 -15.5187 -24.7039 -0.0000 16.4383 2.7966 -7.6077 20.2532 33.1476 -0.0000 26.2537 -1.7419 -25.2223 -27.2529 -25.3154 -35.1763 26.3492 -1.9389 -0.0000 -63.7727 -1.2307 3.6799 18.5061 32.8623 0.0000 -24.3270 -68.7728 -23.3168 31.7670 -5.4021 0.0000 0.0000 4.1133 19.1535 4.2396 -13.0085 -0.0000 -0.0000 34.4797 6.2517 -27.8954 66.0693 0.0000 0.0000 54.9075 6.8741 -6.5826 10.3806 0.0000 -0.0000
 1.8138 34.0477 -6.5997 61.8818 13.7535 -103.6328 -33.4274 -29.8780 20.5498 -23.4439 11.1006 35.6595 15.6310 37.3298 37.5168 -91.6920 -12.1024 -15.4956 -24.3989 -0.0000 16.4698 2.9138 -7.8243 20.5002 33.1476 -0.0000 26.2537 -1.8299 -25.1463 -27.4268 -25.3608 -35.3171 26.2905 -1.8774 -0.0000 -63.5925 -1.2208 3.6606 18.4579 32.8623 0.0000 -24.3270 -68.8123 -23.5130 31.9199 -5.5264 -0.0000 -0.0000 4.1152 19.2709 4.5903 -12.9579 0.0000 0.0000 34.5445 6.3322 -27.8914 66.0301 -0.0000 0.0000 54.8668 6.7085 -6.7449 10.7520 0.0000 0.0000
 1.7963 34.0456 -6.5934 61.7835 13.5578 -103.6765 -33.4147 -29.8492 20.6254 -23.6739 11.0051 35.7793 15.7443 37.4573 37.4240 -91.6865 -12.1350 -15.5435 -24.1688 -0.0000 16.5264 2.8236 -7.5773 20.5075 33.1476 -0.0000 26.2537 -1.8749 -25.1318 -27.5614 -25.2588 -35.3718 26.3674 -1.8034 -0.0000 -63.5929 -1.2187 3.6447 18.5033 32.8623 0.0000 -24.3270 -68.9409 -23.6132 32.0373 -5.6039 -0.0000 0.0000 4.1065 19.2625 4.8052 -12.9219 0.0000 0.0000 34.5719 6.3717 -27.9051 65.9879 -0.0000 -0.0000 54.9500 6.6420 -6.7778 10.8131 -0.0000 -0.0000
